<svg width="2653" height="535" xmlns="http://www.w3.org/2000/svg"><path d="M.552 520.857l2649.472 13.89 2.585-493.828-37.921-15.078L2593.82.577l-33-.173-28.062 11.854-30-.157-23.079 14.95-26.052 9.86-26.156 29.796-26-.136-30.088 16.843-42.047 8.78-13.91-17.073L2293.503 60l-35.042 7.821-30-.157-22.988-2.12-22.032 5.884-12-.062-14.104 19.926-8.042 7.958-15.968-6.084-15.031 5.922-12.037 6.937-14.015 2.926-23.948-10.125-28.978-4.152-20.058 10.895-28.015 2.854-17.927-14.094-20.02 3.895-18.927-14.1-24.968-6.13-10.958-8.058-15.86-26.647-21.002.182-8.965-6.742-15.95-9.525-14.01 1.711-11.064 12.222-16-.083-11.96-7.652-17.975-4.785-6.04 7.626-12-.063-8.984-3.014-20-.105-16.049 9.285-17.048 9.112-13.148 28.295-20.068 12.895-13.979-4.073-14.968-6.079-12-.063-13.031 5.932-10.953-9.057-14-.074-10.031 5.948-15.037 6.921-11.978-4.063-10.01 1.948-21.126 23.89-16.026 4.916-18.974-5.1-19.01 1.901-10.026 4.948-13.02 3.931-21.959-8.115-21.869-25.114-18-.095-25.947-10.136-26.015 2.864-20.968-6.11-22.068 12.885-21.02 3.89-17.98-4.094-14-.074-23.874-24.125-19.015 2.9-21.089 16.89-26-.136-19.936-12.104-18.016 2.905-22.984-3.12-10.031 5.948-7.984-3.042-11.032 5.942-7.036 6.963-20.021 3.895-26.942-11.14-36.926-14.194-50.845-29.83-13.926-14.134-10.025 4.639-13-.068-19.096 18.47-32.018 3.195-11.089 16.942-28.041 7.854-5.068 12.973-17.02 3.911-13.959-8.073-24.041 7.874-26-.136-15.942-11.084-14.927-14.078-16.984-3.089-15.916-16.083-19.984-3.105-11.97-5.596-16.009 1.45-5.047 8.973-20.115 21.895-14.937-12.078-8.91-17.047-9.99-2.053-9.036 6.953-9.985-3.052-12.961-7.34-9.065 12.225-10-.053-9.973-5.052-6.941-11.227-16.01 1.763-10.064 12.291-26.142 26.864-22-.116-21.91-17.115-41.79-40.149-20.99-2.026-21.965-6.708-18.045 8.415-11.983-3.204-16-.084-24.206 1.098-16.228 5.353-14.868-3.6-26.1 1.955-21.62-9.876-23.98-.963-18.227 5.273-15.867-3.64-14.49 11.928L24.05 21.37l-6.236 5.754L.552 33.436z" fill="#000" fill-rule="evenodd"/></svg>